<?xml version="1.0" encoding="utf-8"?>
<!-- Generator: Adobe Illustrator 25.4.1, SVG Export Plug-In . SVG Version: 6.00 Build 0)  -->
<svg version="1.1" id="レイヤー_1" xmlns="http://www.w3.org/2000/svg" xmlns:xlink="http://www.w3.org/1999/xlink" x="0px"
	 y="0px" viewBox="0 0 590.28 168.43" style="enable-background:new 0 0 590.28 168.43;" xml:space="preserve">
<style type="text/css">
	.st0{fill:#FFFFFF;}
	.st1{fill:#231815;}
	.st2{fill:#724597;}
</style>
<g>
	<g>
		<path class="st0" d="M233.79,89.26h-5.6H211.4h-2.86l-0.93,2.7l-17.02,49.57l-1.17,3.4l-0.67-2.77l-10.74-44.44l38.14-34.96
			l7.58-6.95h-1.49l-12.04,0h-67.35h-1.55l-1.14,1.04l-17.63,16.01l-1.97,1.79l0.33-0.97h-5.6h-2.71l11.46-10.53l7.56-6.95h-10.27
			H93.65l1.38-4.02h-5.6H73.36H70.5l-0.93,2.7l-0.45,1.32H47.75H46.2l-1.15,1.05L31.46,69.71l-7.57,6.95h4.87l-13.92,40.53
			l-1.82,5.3h5.6h8.11L7.56,140.12L0,147.06l10.27,0l16.38,0l1.56,0l1.15-1.05l13.05-11.99l-2.61,7.62l-1.82,5.3h5.6h16.08h2.86
			l0.93-2.7l4.28-12.48l5.14,12.8l1.01,2.51l2.7,0l16.38,0l5.92,0l-0.02-0.05h3.3h20.54h1.56l1.15-1.05l29.76-27.28l6.82,25.45
			l0.79,2.96h3.07h19.05h5.08l-0.06-0.27h4.49h16.79h2.86l0.93-2.7l17.02-49.57L233.79,89.26z M99.44,140.06l-2.48,2.27l-0.3-0.76
			L89,122.49h12.27h2.86l0.93-2.7l13.73-39.98h6.44h39.95L99.44,140.06z"/>
		<path class="st0" d="M281.85,122.52l0.33-0.96l9.27-27.01l1.82-5.3h-5.6h-16.79h-2.86l-0.93,2.7l-17.02,49.57l-5.12,14.93
			l11.62-10.68l24.53-22.56L281.85,122.52z M253.86,142.83l24.53-22.56l9.27-27.01l-9.27,27.01L253.86,142.83z"/>
		<path class="st0" d="M371.31,50.38l36.21,3.84l-0.69,2.02l-5.71,16.63h-3.75l0.44-1.28l3.84-11.19l1.82-5.3h-5.6h-6.34l1.01-2.94
			h-5.6h-14.71h-2.86l-0.93,2.7l-0.08,0.24h-8.28h-1.43h-2.86h-1.32h-6.34l1.01-2.94h-5.6h-14.71h-2.86l-0.93,2.7l-0.08,0.24h-1.35
			h-1.56l-1.15,1.05l-12.19,11.19l-2.85,2.62c1.08-1.48,1.93-3.1,2.53-4.85c1.75-5.1,0.43-8.74-0.99-10.9
			c-1.47-2.23-4.35-4.9-9.79-4.9c-3.81,0-7.47,1.29-10.89,3.83c-3.15,2.34-5.39,5.25-6.72,8.63h-7.21l1.42-4.12l1.82-5.3h-5.6
			h-16.39h-2.86l-0.93,2.7l-2.31,6.72h-14.92h-1.55l-1.15,1.05l-17.79,16.26l-0.29,0.26l-7.79,6.69l10.77,0.03h24.38l-19.05,55.5
			l-1.82,5.3h5.6h16.39h2.86l0.93-2.7l19.95-58.1h17.03h2.93l0.01-0.03h7.17h2.86l0.93-2.7l2.16-6.29l0.16-0.46
			c1.23-0.57,2.44-1.27,3.63-2.13c0.08-0.05,0.14-0.11,0.22-0.17h4.17l-0.44,1.28l-3.81,11.09l-0.42,1.23h-0.06l-0.93,2.7
			l-9.3,27.09l-1.82,5.3h5.6h0.45l-18.65,17.14l-7.56,6.95l10.27,0l14.53,0l1.56,0l1.15-1.05l6.4-5.88l-0.62,1.8l-1.84,5.37
			l5.68-0.07l12.15-0.16l6.93,0l14.53,0l1.56,0l1.15-1.05l6.47-5.95l-0.64,1.87l-1.85,5.4l5.7-0.1l9.37-0.16l1.52-0.03l1.12-1.03
			l12.03-11.06l3.99-3.67l-4.94,9.94l-2.87,5.78h6.45h12.29h0.23h2.25h3.35h7.9h2.31h2.86h0.44h7.99h2.22h2.86h0.53h2.06l-0.06,0.05
			h10.26h4.58l0,0l7.74,0.01l10.21,0l2.64,0l2.86,0l-6.54,21.36l15.74-22.94l43.37-63.22l8.91-4.65l18.29,1.77l2.25,0.22l0.25,0.13
			l20.36,10.86l2,1.06l1.94-1.16l15.28-9.14l4.34-2.59l-3.52-3.62l-5.89-6.07l-23.24-24.47l-0.46-0.49l0.11,0l-6.91-7.05l-5.39-5.51
			l0.47-9.08l0.81-15.89l-7.52,12.43l-0.71-3.16L534.46,0l-4.21,15.69l-2.5,9.32l-104.44,2.37l28,6l-37,4l23.09,5.38 M444.35,124.87
			l0.78-2.28h3.27l-1.84,5.37l-4.79,4.4L444.35,124.87z M335.5,127.96l-5.26,0.04l-1.28,0.01l1.73-5.03h1.63h1.77h2.86h0.98h3
			L335.5,127.96z M284.43,61.7c-0.02,0.03-0.03,0.06-0.04,0.09l0,0C284.4,61.76,284.41,61.73,284.43,61.7z M373.2,128l-0.85,0.01
			l1.73-5.03h3.4h2.86l0.93-2.7l9.3-27.09l1.82-5.3h-5.6h-0.83l8.68-8.09l6.04-5.63l-14.8,43.11l-1.82,5.3h0.2l-2.65,5.34L373.2,128
			z M469.98,143.22L469.98,143.22L469.98,143.22L469.98,143.22z"/>
	</g>
	<g>
		<g>
			<g>
				<polygon class="st1" points="184.87,143.09 173.58,96.36 213.46,59.8 210.19,59.8 210.2,59.8 142.85,59.8 125.22,75.81 
					175.45,75.81 102.14,143.01 122.68,143.01 157.3,111.28 165.83,143.09 				"/>
			</g>
			<g>
				<path class="st1" d="M92.94,143.06l-9.86-24.58h18.19l14.02-40.83H82.06l1.72-5.01h23.99l13.57-12.47H88.05l1.38-4.02H73.36
					l-1.38,4.02H47.75L34.16,72.65H67.7l-1.72,5.01H32.65l-14.02,40.83H37l-26.74,24.58l16.38,0l24.66-22.67l-7.74,22.53h16.08
					l7.78-22.65l9.14,22.78L92.94,143.06z M78.52,87.96h18.15l-1.85,5.4H76.66L78.52,87.96z M73.39,102.88h18.15l-1.82,5.3H71.57
					L73.39,102.88z M44.19,87.96h18.25l-1.85,5.4H42.34L44.19,87.96z M39.07,102.88h18.24l-1.82,5.3H37.25L39.07,102.88z"/>
			</g>
			<g>
				<g>
					<path class="st1" d="M348.51,76.87h-5.44l2.26-6.58h0.2h5.1l3.84-11.19h-11.94l1.01-2.94h-14.71l-1.01,2.94h-4.21L311.42,70.3
						h5.72h0.01l-2.26,6.58h-0.18h-5.66l-3.81,11.09h39.45L348.51,76.87z M325.77,76.87h-1.35l2.26-6.58h0.07h9.05l-2.26,6.58h-0.95
						H325.77z"/>
				</g>
				<g>
					<path class="st1" d="M323.34,132.05l4.49-13.08h0.36h5.89l9.3-27.09h-39.55l-9.3,27.09h5.79h4.93l-26.2,24.09l14.53,0
						l21.8-20.03l-3.13,9.12l-2.6,0.02l-3.8,11.06l12.34-0.16L330.27,132L323.34,132.05z M313.72,101.7h12.95l-2.63,7.66h-12.95
						L313.72,101.7z"/>
				</g>
				<g>
					<path class="st1" d="M391.9,76.87h-5.44l2.26-6.58h0.2h5.1l3.84-11.19h-11.94l1.01-2.94h-14.71l-1.01,2.94h-12.56l-3.84,11.19
						h5.72h0.01l-2.26,6.58h-0.18h-5.66l-3.81,11.09h31.36L391.9,76.87z M369.16,76.87h-1.35l2.26-6.58h0.06h9.05l-2.26,6.58h-0.95
						H369.16z"/>
				</g>
				<g>
					<path class="st1" d="M366.73,132.06l4.5-13.08h0.36h5.89l9.3-27.09h-39.55l-9.3,27.09h5.79h7.47l-26.21,24.09l14.53,0
						l18.08-16.62l-1.97,5.72l0,0l-3.8,11.06l9.37-0.16L373.23,132L366.73,132.06z M357.1,101.7h12.95l-2.63,7.66h-12.95
						L357.1,101.7z"/>
				</g>
			</g>
			<g>
				<g>
					<polygon class="st1" points="194.38,142.83 211.17,142.83 228.19,93.26 211.4,93.26 					"/>
				</g>
				<g>
					<polygon class="st1" points="253.86,142.83 278.39,120.26 287.67,93.26 270.88,93.26 					"/>
				</g>
				<g>
					<path class="st1" d="M282.03,72.77c-1.32-1.91-1.69-4.26-1.13-6.99h-13.7l3.24-9.42h-16.39l-3.23,9.42h-17.78l-17.79,16.26
						h0.02l-0.03,0.03h29.98l-20.87,60.8h16.39l20.87-60.8h19.89l0.01-0.03h10.1l2.16-6.29c-1.33,0.36-2.67,0.55-4.03,0.55
						C286.23,76.3,283.65,75.11,282.03,72.77z"/>
				</g>
				<g>
					<path class="st1" d="M304.06,56.41c-1.35-2.06-3.5-3.09-6.45-3.09c-2.95,0-5.78,1.01-8.5,3.04c-2.73,2.03-4.59,4.52-5.6,7.46
						c-1.03,3.01-0.87,5.5,0.48,7.46c1.35,1.97,3.5,2.94,6.45,2.94c2.94,0,5.79-1,8.54-2.99c2.74-1.99,4.63-4.46,5.64-7.41
						C305.6,60.94,305.42,58.47,304.06,56.41z M296.05,66.77c-1.21,0.85-2.37,1.28-3.48,1.28c-1.18,0-2.05-0.42-2.61-1.28
						c-0.56-0.85-0.64-1.83-0.27-2.95c0.43-1.24,1.2-2.26,2.32-3.04c1.12-0.79,2.27-1.18,3.45-1.18c1.18,0,2.07,0.41,2.67,1.23
						c0.6,0.82,0.7,1.82,0.3,2.99C298.05,64.93,297.25,65.92,296.05,66.77z"/>
				</g>
			</g>
			<g>
				<g>
					<path class="st1" d="M468.59,100.43l10.66-9.81h-26.31l1.85-5.4h19.02l10.65-9.81h-26.31l1.85-5.4h17.02l13.52-12.46h-79.95
						l-20.96,61.05h15.41l0,0h24.18l0,0h14l0,0h10.77l-3.98,11.62l-13.97,12.84h12.32l-0.01,0.01l10.21,0l2.65,0l12.49-36.38
						l0.33-0.96l-26.29,0h0l1.82-5.3H468.59z M421.83,70h22.87l-1.85,5.4h-22.87L421.83,70z M416.61,85.21h22.87l-1.85,5.4h-22.87
						L416.61,85.21z M411.39,100.43h22.87l-1.82,5.3h-22.87L411.39,100.43z"/>
				</g>
				<g>
					<polygon class="st1" points="396.7,143 406.91,143 413.58,123.57 403.37,123.57 					"/>
				</g>
				<g>
					<polygon class="st1" points="410.2,143 420.4,143 427.07,123.57 416.87,123.57 					"/>
				</g>
				<g>
					<polygon class="st1" points="423.79,143 433.9,143 440.57,123.57 430.46,123.57 					"/>
				</g>
				<g>
					<polygon class="st1" points="378.58,143 390.87,143 400.51,123.57 388.22,123.57 					"/>
				</g>
			</g>
		</g>
		<g>
			<g>
				<polygon class="st2" points="578,71.85 554.72,47.35 547.5,47.35 577.5,77.29 569.61,82.26 548.25,76.21 568.61,87.06 
					583.89,77.92 				"/>
			</g>
			<g>
				<polygon class="st2" points="517.35,45.73 510.96,66.77 488.05,87.91 469.98,143.22 518.24,72.89 544.24,75.4 520.26,67.09 				
					"/>
			</g>
			<g>
				<polygon class="st2" points="495.36,50.67 509.85,36.85 532.46,36.28 535.48,38.54 525.01,51.26 542.22,39.72 547.5,39.86 
					540.88,33.1 541.43,22.27 537,29.6 534.11,16.73 530.82,29 443.57,29.29 496.99,34.82 428.12,38.13 491.93,42.41 395.06,50.16 
									"/>
			</g>
		</g>
	</g>
</g>
</svg>
