<svg xmlns="http://www.w3.org/2000/svg" width="117.312" height="21.959" viewBox="0 0 117.312 21.959">
  <g id="グループ_4701" data-name="グループ 4701" transform="translate(-52.007 -42.473)">
    <path id="パス_585" data-name="パス 585" d="M162.311,69.169l-2.758-11.416,9.74-8.928H152.048l-4.306,3.91h12.269L142.1,69.149h5.018l8.456-7.751,2.082,7.771Z" transform="translate(-67.656 -4.769)" fill="#fff"/>
    <path id="パス_586" data-name="パス 586" d="M72.2,66.489l-2.408-6h4.443l3.424-9.972H69.542l.419-1.223h5.86l3.315-3.045h-8.13l.337-.982H67.417l-.337.982H61.164l-3.319,3.045h8.19l-.419,1.223H57.473l-3.424,9.972h4.488l-6.53,6h4l6.023-5.536-1.89,5.5h3.927l1.9-5.533L68.2,66.488ZM68.677,53.031H73.11l-.452,1.319H68.224Zm-1.251,3.644h4.432l-.444,1.3H66.982Zm-7.133-3.644H64.75L64.3,54.35H59.841Zm-1.25,3.644H63.5l-.444,1.295H58.6Z" transform="translate(0 -2.097)" fill="#fff"/>
    <g id="グループ_4698" data-name="グループ 4698" transform="translate(117.659 43.168)">
      <path id="パス_587" data-name="パス 587" d="M351.848,50.323H350.52l.552-1.606h1.3l.938-2.733h-2.916l.247-.719h-3.594l-.247.719h-1.027l-2.979,2.733h1.4l-.552,1.606h-1.425l-.931,2.708h9.637Zm-5.553,0h-.33l.552-1.606h2.227l-.552,1.606h-1.9Z" transform="translate(-334.883 -45.265)" fill="#fff"/>
      <path id="パス_588" data-name="パス 588" d="M326.412,90.106l1.1-3.195h1.527l2.271-6.616h-9.66l-2.271,6.616h2.618l-6.4,5.883h3.55l5.324-4.893-.764,2.226-.636,0-.927,2.7,3.014-.04,2.951-2.7Zm-2.351-7.414h3.164l-.642,1.87h-3.164Z" transform="translate(-315.594 -71.57)" fill="#fff"/>
      <path id="パス_589" data-name="パス 589" d="M394.4,50.323h-1.328l.552-1.606h1.294l.938-2.733h-2.916l.246-.719h-3.594l-.246.719h-3.068l-.938,2.733h1.4l-.552,1.606h-1.425l-.931,2.708h7.659Zm-5.554,0h-.33l.552-1.606h2.226l-.552,1.606h-1.9Z" transform="translate(-366.833 -45.265)" fill="#fff"/>
      <path id="パス_590" data-name="パス 590" d="M370.831,90.107l1.1-3.2h1.527l2.271-6.616h-9.66L363.8,86.911h3.24l-6.4,5.883h3.55l4.417-4.06-.48,1.4h0l-.928,2.7,2.289-.04,2.937-2.7Zm-2.351-7.415h3.164L371,84.562h-3.164Z" transform="translate(-349.416 -71.57)" fill="#fff"/>
    </g>
    <g id="グループ_4699" data-name="グループ 4699" transform="translate(96.977 42.473)">
      <path id="パス_591" data-name="パス 591" d="M232.559,93.743h4.1l4.157-12.108h-4.1Z" transform="translate(-232.559 -71.881)" fill="#fff"/>
      <path id="パス_592" data-name="パス 592" d="M290.89,93.743l5.992-5.511,2.265-6.6h-4.1Z" transform="translate(-276.362 -71.881)" fill="#fff"/>
      <path id="パス_593" data-name="パス 593" d="M269.328,49.464a2.14,2.14,0,0,1-.275-1.707h-3.347l.79-2.3h-4l-.79,2.3h-4.342l-4.345,3.972h.005l-.008.007h7.323l-5.1,14.85h4l5.1-14.85H269.2l0-.007h2.466l.527-1.537a3.726,3.726,0,0,1-.985.134A2.129,2.129,0,0,1,269.328,49.464Z" transform="translate(-247.918 -44.712)" fill="#fff"/>
      <path id="パス_594" data-name="パス 594" d="M324.492,43.228a1.745,1.745,0,0,0-1.574-.755,3.433,3.433,0,0,0-2.077.743,3.779,3.779,0,0,0-1.369,1.822,1.955,1.955,0,0,0,.118,1.822,1.777,1.777,0,0,0,1.575.719,3.5,3.5,0,0,0,2.085-.731,3.7,3.7,0,0,0,1.377-1.81A1.979,1.979,0,0,0,324.492,43.228Zm-1.958,2.529a1.492,1.492,0,0,1-.851.312.705.705,0,0,1-.636-.312.787.787,0,0,1-.065-.72,1.477,1.477,0,0,1,.567-.743,1.451,1.451,0,0,1,.842-.287.73.73,0,0,1,.725,1.03A1.477,1.477,0,0,1,322.534,45.757Z" transform="translate(-297.701 -42.473)" fill="#fff"/>
    </g>
    <g id="グループ_4700" data-name="グループ 4700" transform="translate(141.968 43.503)">
      <path id="パス_595" data-name="パス 595" d="M443.33,57.086l2.6-2.4h-6.426l.452-1.319h4.646l2.6-2.4h-6.426l.453-1.319h4.158l3.3-3.044H429.168l-5.12,14.911h15.72l-.973,2.839L435.383,67.5h3.01l0,0h3.14l3.05-8.885.081-.234h-6.423l.444-1.294Zm-11.421-7.431H437.5l-.453,1.319h-5.585Zm-1.275,3.715h5.585l-.453,1.319h-5.586Zm-1.276,3.716h5.585L434.5,58.38h-5.585Z" transform="translate(-421.345 -46.61)" fill="#fff"/>
      <path id="パス_596" data-name="パス 596" d="M430.963,116.106h2.493l1.63-4.746h-2.493Z" transform="translate(-426.538 -95.232)" fill="#fff"/>
      <path id="パス_597" data-name="パス 597" d="M444.2,116.106h2.493l1.629-4.746H445.83Z" transform="translate(-436.478 -95.232)" fill="#fff"/>
      <path id="パス_598" data-name="パス 598" d="M457.531,116.106H460l1.63-4.746H459.16Z" transform="translate(-446.488 -95.232)" fill="#fff"/>
      <path id="パス_599" data-name="パス 599" d="M413.195,116.106h3l2.355-4.746h-3Z" transform="translate(-413.195 -95.232)" fill="#fff"/>
    </g>
  </g>
</svg>
